<svg
  class="seperator"
  preserveAspectRatio="none"
  xmlns="http://www.w3.org/2000/svg"
  viewBox="0 0 1440 420"
>
  <rect x="0" y="0" width="1440" height="420" fill="#0066FF"></rect><path d="M0 112L21.8 99.8C43.7 87.7 87.3 63.3 131 50.7C174.7 38 218.3 37 262 53.3C305.7 69.7 349.3 103.3 393 114.7C436.7 126 480.3 115 524 115C567.7 115 611.3 126 654.8 138.5C698.3 151 741.7 165 785.2 152C828.7 139 872.3 99 916 92.7C959.7 86.3 1003.3 113.7 1047 130.5C1090.7 147.3 1134.3 153.7 1178 154.7C1221.7 155.7 1265.3 151.3 1309 141C1352.7 130.7 1396.3 114.3 1418.2 106.2L1440 98L1440 421L1418.2 421C1396.3 421 1352.7 421 1309 421C1265.3 421 1221.7 421 1178 421C1134.3 421 1090.7 421 1047 421C1003.3 421 959.7 421 916 421C872.3 421 828.7 421 785.2 421C741.7 421 698.3 421 654.8 421C611.3 421 567.7 421 524 421C480.3 421 436.7 421 393 421C349.3 421 305.7 421 262 421C218.3 421 174.7 421 131 421C87.3 421 43.7 421 21.8 421L0 421Z" fill="#0066ff"></path><path d="M0 147L21.8 154.2C43.7 161.3 87.3 175.7 131 184.5C174.7 193.3 218.3 196.7 262 191.8C305.7 187 349.3 174 393 178.8C436.7 183.7 480.3 206.3 524 212.5C567.7 218.7 611.3 208.3 654.8 200.3C698.3 192.3 741.7 186.7 785.2 170.5C828.7 154.3 872.3 127.7 916 128C959.7 128.3 1003.3 155.7 1047 175.7C1090.7 195.7 1134.3 208.3 1178 212.2C1221.7 216 1265.3 211 1309 197.2C1352.7 183.3 1396.3 160.7 1418.2 149.3L1440 138L1440 421L1418.2 421C1396.3 421 1352.7 421 1309 421C1265.3 421 1221.7 421 1178 421C1134.3 421 1090.7 421 1047 421C1003.3 421 959.7 421 916 421C872.3 421 828.7 421 785.2 421C741.7 421 698.3 421 654.8 421C611.3 421 567.7 421 524 421C480.3 421 436.7 421 393 421C349.3 421 305.7 421 262 421C218.3 421 174.7 421 131 421C87.3 421 43.7 421 21.8 421L0 421Z" fill="#7789ff"></path><path d="M0 289L21.8 273.2C43.7 257.3 87.3 225.7 131 205.7C174.7 185.7 218.3 177.3 262 182.7C305.7 188 349.3 207 393 220.3C436.7 233.7 480.3 241.3 524 244.3C567.7 247.3 611.3 245.7 654.8 236.7C698.3 227.7 741.7 211.3 785.2 203.5C828.7 195.7 872.3 196.3 916 196C959.7 195.7 1003.3 194.3 1047 196.2C1090.7 198 1134.3 203 1178 203.5C1221.7 204 1265.3 200 1309 201.5C1352.7 203 1396.3 210 1418.2 213.5L1440 217L1440 421L1418.2 421C1396.3 421 1352.7 421 1309 421C1265.3 421 1221.7 421 1178 421C1134.3 421 1090.7 421 1047 421C1003.3 421 959.7 421 916 421C872.3 421 828.7 421 785.2 421C741.7 421 698.3 421 654.8 421C611.3 421 567.7 421 524 421C480.3 421 436.7 421 393 421C349.3 421 305.7 421 262 421C218.3 421 174.7 421 131 421C87.3 421 43.7 421 21.8 421L0 421Z" fill="#acafff"></path><path d="M0 305L21.8 296.5C43.7 288 87.3 271 131 265.7C174.7 260.3 218.3 266.7 262 279.5C305.7 292.3 349.3 311.7 393 318.2C436.7 324.7 480.3 318.3 524 304.7C567.7 291 611.3 270 654.8 272.5C698.3 275 741.7 301 785.2 301.7C828.7 302.3 872.3 277.7 916 272.8C959.7 268 1003.3 283 1047 295.3C1090.7 307.7 1134.3 317.3 1178 315.8C1221.7 314.3 1265.3 301.7 1309 303.8C1352.7 306 1396.3 323 1418.2 331.5L1440 340L1440 421L1418.2 421C1396.3 421 1352.7 421 1309 421C1265.3 421 1221.7 421 1178 421C1134.3 421 1090.7 421 1047 421C1003.3 421 959.7 421 916 421C872.3 421 828.7 421 785.2 421C741.7 421 698.3 421 654.8 421C611.3 421 567.7 421 524 421C480.3 421 436.7 421 393 421C349.3 421 305.7 421 262 421C218.3 421 174.7 421 131 421C87.3 421 43.7 421 21.8 421L0 421Z" fill="#d7d6ff"></path><path d="M0 393L21.8 393.3C43.7 393.7 87.3 394.3 131 380.5C174.7 366.7 218.3 338.3 262 338.5C305.7 338.7 349.3 367.3 393 375C436.7 382.7 480.3 369.3 524 356.8C567.7 344.3 611.3 332.7 654.8 339.5C698.3 346.3 741.7 371.7 785.2 380.2C828.7 388.7 872.3 380.3 916 369.2C959.7 358 1003.3 344 1047 335C1090.7 326 1134.3 322 1178 324.3C1221.7 326.7 1265.3 335.3 1309 340.2C1352.7 345 1396.3 346 1418.2 346.5L1440 347L1440 421L1418.2 421C1396.3 421 1352.7 421 1309 421C1265.3 421 1221.7 421 1178 421C1134.3 421 1090.7 421 1047 421C1003.3 421 959.7 421 916 421C872.3 421 828.7 421 785.2 421C741.7 421 698.3 421 654.8 421C611.3 421 567.7 421 524 421C480.3 421 436.7 421 393 421C349.3 421 305.7 421 262 421C218.3 421 174.7 421 131 421C87.3 421 43.7 421 21.8 421L0 421Z" fill="#ffffff"></path>
</svg>
